<svg width="24" height="24" viewBox="0 0 24 24" fill="none" xmlns="http://www.w3.org/2000/svg">
<path d="M10.5007 11.9998H5.00067M4.91601 12.2913L2.58109 19.266C2.39766 19.8139 2.30594 20.0879 2.37176 20.2566C2.42892 20.4031 2.55169 20.5142 2.70317 20.5565C2.8776 20.6052 3.14107 20.4866 3.66801 20.2495L20.3795 12.7293C20.8938 12.4979 21.151 12.3822 21.2304 12.2214C21.2995 12.0817 21.2995 11.9179 21.2304 11.7782C21.151 11.6174 20.8938 11.5017 20.3795 11.2703L3.66218 3.74751C3.13683 3.51111 2.87416 3.39291 2.6999 3.4414C2.54856 3.48351 2.42581 3.59429 2.36845 3.74054C2.30241 3.90893 2.39314 4.18231 2.57462 4.72906L4.91667 11.7853C4.94783 11.8792 4.96342 11.9262 4.96957 11.9742C4.97503 12.0168 4.97497 12.0599 4.96941 12.1025C4.96313 12.1506 4.94742 12.1975 4.91601 12.2913Z" stroke="white" stroke-width="1.5" stroke-linecap="round" stroke-linejoin="round"/>
</svg>
